<?xml version="1.0" encoding="utf-8"?>
<!-- Generator: Adobe Illustrator 25.4.1, SVG Export Plug-In . SVG Version: 6.00 Build 0)  -->
<svg version="1.1" id="Layer_2" xmlns="http://www.w3.org/2000/svg" xmlns:xlink="http://www.w3.org/1999/xlink" x="0px" y="0px"
	 viewBox="600 600 603.7 587.7" style="enable-background:new 0 0 1803.7 1787.7;" xml:space="preserve">
<g>
	<path fill='white'  d="M1120.2,604.5c-158.5,0-287.1,127.7-288.2,285.6V604.5c-153.5,0-278.9,119.7-287.7,270.7V643
		c-86.1,49.7-144.1,142.7-144.1,249.2s58,199.5,144.1,249.2V909.2c8.8,151,134.2,270.7,287.7,270.7V894.2
		c1.1,157.9,129.7,285.6,288.2,285.6c159.2,0,288.2-128.8,288.2-287.7S1279.4,604.5,1120.2,604.5z"/>
	<path fill='white'  d="M1406.3,1129.4c-1.9-4.3-4.4-8-7.6-11c-3.2-3-6.9-5.4-11.3-7.1c-4.3-1.7-8.9-2.6-13.7-2.6c-4.9,0-9.5,0.9-13.8,2.6
		c-4.3,1.7-8.1,4.1-11.3,7.1c-3.2,3-5.7,6.7-7.5,11c-1.8,4.3-2.8,9-2.8,14.1c0,6.7,1.6,12.7,4.8,18.1c3.2,5.3,7.4,9.4,12.8,12.3
		c5.4,2.9,11.3,4.3,17.8,4.3c6.5,0,12.4-1.4,17.7-4.3c5.4-2.9,9.6-7,12.8-12.3c3.2-5.3,4.8-11.3,4.8-18.1
		C1409.1,1138.5,1408.2,1133.8,1406.3,1129.4z M1399.4,1155.1c-1.4,3.6-3.3,6.6-5.8,9c-2.5,2.5-5.4,4.4-8.8,5.8
		c-3.4,1.4-7.1,2.1-11,2.1c-3.9,0-7.5-0.7-10.9-2.1c-3.4-1.4-6.4-3.3-8.8-5.8c-2.5-2.4-4.4-5.5-5.9-9.1c-1.4-3.6-2.2-7.4-2.2-11.6
		c0-4.1,0.7-7.9,2.2-11.3c1.4-3.5,3.4-6.4,5.9-8.8c2.5-2.4,5.4-4.3,8.8-5.6c3.4-1.3,7.1-2,10.9-2c5.2,0,10,1.1,14.2,3.4
		c4.2,2.3,7.5,5.6,9.9,9.8c2.4,4.2,3.6,9.1,3.6,14.5C1401.5,1147.7,1400.8,1151.5,1399.4,1155.1z"/>
	<path fill='white'  d="M1387.2,1140.9c1.1-1.7,1.7-3.6,1.7-5.7c0-2.3-0.4-4.3-1.1-5.8c-0.8-1.5-1.9-2.7-3.5-3.5s-3.4-1.3-5.3-1.6
		c-2-0.3-4.4-0.4-7.4-0.4h-11.3v36.7h7.6v-14h5.3h1.7l7.5,14h8.3l-8.5-15.6C1384.4,1144,1386.1,1142.7,1387.2,1140.9z
		 M1379.4,1139.4c-1.3,0.9-3.4,1.4-6.2,1.4h-5.3v-10.9h4.9c2.8,0,4.9,0.4,6.3,1.2c1.5,0.8,2.2,2.2,2.2,4.2
		C1381.3,1137.1,1380.7,1138.5,1379.4,1139.4z"/>
</g>
</svg>
