<?xml version="1.0" encoding="utf-8"?>
<!-- Generator: Adobe Illustrator 25.4.1, SVG Export Plug-In . SVG Version: 6.00 Build 0)  -->
<svg version="1.1" id="Layer_2" xmlns="http://www.w3.org/2000/svg" xmlns:xlink="http://www.w3.org/1999/xlink" x="0px" y="0px"
	 viewBox="500 500 4233.6 1035.2" style="enable-background:new 0 0 5233.6 2035.2;" xml:space="preserve">
<g>
	<path fill='white' d="M1334,722.2c-158.5,0-287.1,127.7-288.2,285.6V722.2c-157.9,0-286.1,126.8-288.2,283.9V760.3
		C671.5,810,613.6,903,613.6,1009.4c0,106.5,58,199.5,144.1,249.2v-245c2,157.1,130.3,283.9,288.2,283.9V1012
		c1.1,157.9,129.7,285.6,288.2,285.6c159.2,0,288.2-128.8,288.2-287.7C1622.2,851,1493.2,722.2,1334,722.2z"/>
	<path fill='white' d="M4577.1,767.7c-3.7-8.7-8.8-16.2-15.2-22.2c-6.4-6.1-14-10.8-22.7-14.3c-8.7-3.4-17.9-5.2-27.7-5.2
		c-9.8,0-19.1,1.7-27.8,5.2c-8.7,3.4-16.3,8.2-22.7,14.3c-6.4,6.1-11.5,13.5-15.2,22.2c-3.7,8.7-5.6,18.2-5.6,28.3
		c0,13.5,3.2,25.6,9.6,36.4c6.4,10.7,15,19,25.8,24.8c10.8,5.8,22.8,8.7,36,8.7c13,0,25-2.9,35.8-8.7c10.8-5.8,19.4-14.1,25.8-24.8
		c6.4-10.7,9.6-22.9,9.6-36.4C4582.7,785.9,4580.8,776.4,4577.1,767.7z M4563.1,819.3c-2.8,7.2-6.7,13.2-11.7,18.2
		c-5,5-10.9,8.9-17.7,11.7c-6.9,2.8-14.3,4.2-22.2,4.2c-7.8,0-15.1-1.4-22-4.2c-6.9-2.8-12.8-6.7-17.8-11.6c-5-4.9-8.9-11-11.8-18.2
		c-2.9-7.2-4.4-15-4.4-23.4c0-8.2,1.5-15.8,4.4-22.8c2.9-7,6.9-12.9,11.8-17.7c5-4.8,10.9-8.6,17.8-11.3c6.9-2.7,14.2-4.1,22-4.1
		c10.6,0,20.1,2.3,28.6,6.9c8.5,4.6,15.2,11.2,20,19.7c4.9,8.5,7.3,18.3,7.3,29.3C4567.4,804.4,4566,812.2,4563.1,819.3z"/>
	<path fill='white' d="M4538.7,790.9c2.3-3.5,3.4-7.3,3.4-11.6c0-4.7-0.8-8.6-2.3-11.6c-1.5-3-3.9-5.4-7.1-7c-3.2-1.6-6.8-2.7-10.8-3.3
		c-3.9-0.6-8.9-0.9-14.8-0.9h-22.7v74h15.3v-28.2h10.7h3.5l15.1,28.2h16.8l-17.1-31.5C4533.1,797.1,4536.4,794.4,4538.7,790.9z
		 M4522.8,787.8c-2.6,1.8-6.8,2.7-12.5,2.7h-10.7v-22h9.9c5.5,0,9.8,0.8,12.8,2.4c3,1.6,4.5,4.4,4.5,8.5
		C4526.8,783.2,4525.5,786,4522.8,787.8z"/>
	<path fill='white' d="M2032.1,971.5l-48.8-9.4c-83.4-17.3-109.4-37.8-109.4-82.7c0-42.5,33.1-69.3,100.8-69.3c89,0,119.7,33.8,123.6,93.7h103.1
		c-3.9-105.5-70.8-179.5-228.3-179.5c-134.6,0-207.8,65.3-207.8,158.2c0,101.6,71.6,149.6,180.3,170l47.2,9.4
		c85.8,17.3,114.9,37,114.9,81.1c0,52.7-40.1,81.1-113.4,81.1c-77.9,0-137-23.6-138.5-111.8h-104.7
		c0.8,129.1,90.5,197.6,240.1,197.6c140.1,0,226.7-61.4,226.7-172.4C2217.9,1048.6,2164.4,997.4,2032.1,971.5z"/>
	<path fill='white' d="M2445.2,881.7c-120.4,0-200.7,85-200.7,212.5c0,129.9,82.7,212.5,202.3,212.5c97.6,0,168.5-52.7,188.9-135.4h-95.3
		c-15,36.2-45.7,58.3-92.9,58.3c-57.5,0-98.4-32.3-105.5-104.7h303.9v-23.6C2645.9,972.2,2569.6,881.7,2445.2,881.7z M2342.9,1055.7
		c9.4-66.9,48.8-96.8,101.6-96.8c59,0,94.5,39.4,102.3,96.8H2342.9z"/>
	<path fill='white' d="M3037.9,1003.7c0-73.2-48-122-169.3-122c-126.7,0-177.1,52.7-182.6,138.5h97.6c3.9-49.6,27.6-64.6,84.2-64.6
		c57.5,0,74,18.9,74,50.4c0,29.9-19.7,41.7-57.5,46.4l-61.4,5.5c-114.9,11-155.9,59-155.9,126.7c0,78.7,59.8,122,146.4,122
		c59.8,0,103.9-21.3,130.7-59c1.6,19.7,4.7,38.6,11,49.6h99.2c-11-15.7-16.5-48-16.5-77.1V1003.7z M2941.9,1136.8
		c0,70.8-52,99.2-104.7,99.2c-45.7,0-68.5-21.3-68.5-55.1c0-32.3,18.1-52,73.2-58.3l53.5-6.3c21.3-2.4,36.2-7.1,46.4-16.5V1136.8z"
		/>
	<path fill='white' d="M3274.5,1224.2c-57.5,0-99.2-40.9-99.2-129.9c0-89,40.1-129.9,99.2-129.9c44.1,0,80.3,22.8,89.7,73.2h99.2
		c-11.8-95.3-82.7-155.9-188.9-155.9c-121.2,0-200.7,82.7-200.7,212.5s80.3,212.5,200.7,212.5c103.9,0,179.5-61.4,190.5-160.6h-99.2
		C3358,1199.7,3319.4,1224.2,3274.5,1224.2z"/>
	<rect fill='white' x="3502.7" y="736.9" width="99.2" height="560.5"/>
	<path fill='white' d="M3922.9,1118.7c0,72.4-47.2,102.3-90.5,102.3c-51.2,0-76.4-25.2-76.4-77.1V891.2h-99.2v269.2
		c0,96.8,57.5,146.4,141.7,146.4c58.3,0,100.8-29.1,127.5-68.5v59h96V891.2h-99.2V1118.7z"/>
	<path fill='white' d="M4303.7,881.7c-56.7,0-98.4,22.8-126,62.2v-207h-99.2v560.5h95.3v-58.3c27.6,42.5,70.8,67.7,129.9,67.7
		c111.8,0,181.8-83.4,181.8-212.5C4485.5,965.2,4415.5,881.7,4303.7,881.7z M4280.1,1224.9c-64.6,0-104.7-44.9-104.7-130.7
		c0-85.8,40.1-130.7,104.7-130.7s104.7,41.7,104.7,127.5S4344.6,1224.9,4280.1,1224.9z"/>
</g>
</svg>
